<svg xmlns="http://www.w3.org/2000/svg" viewBox="0 0 800 1000">
  <rect width="800" height="1000" fill="#FFFDF6"/>
  <rect x="20" y="20" width="760" height="960" fill="none" stroke="#E8E1CE" stroke-width="4" stroke-dasharray="10 8" rx="24"/>
  <g transform="translate(400 520) rotate(4)">
    <path d="M -60 180
             C -100 180 -110 100 -108 20
             L -108 -80
             C -108 -105 -70 -105 -70 -80
             L -70 -20
             L -70 -220
             C -70 -250 -30 -250 -30 -220
             L -30 -40
             L -30 -260
             C -30 -292 22 -292 22 -260
             L 22 -40
             L 22 -240
             C 22 -270 62 -270 62 -240
             L 62 20
             L 90 -60
             C 100 -90 138 -78 128 -46
             L 96 100
             C 90 150 40 180 -10 182
             Z"
          fill="none" stroke="#C68FFF" stroke-width="14" stroke-linejoin="round" stroke-linecap="round"/>
  </g>
  <text x="400" y="920" font-family="sans-serif" font-size="28" fill="#C9C2AC" text-anchor="middle">기도제목 카드 (샘플 이미지)</text>
</svg>
